<mxfile host="Electron" agent="Mozilla/5.0 (Windows NT 10.0; Win64; x64) AppleWebKit/537.36 (KHTML, like Gecko) draw.io/26.0.9 Chrome/128.0.6613.186 Electron/32.2.5 Safari/537.36" version="26.0.9">
  <diagram name="Page-1" id="tyVAIlG2D9JIPMp_8jAw">
    <mxGraphModel dx="1434" dy="844" grid="1" gridSize="10" guides="1" tooltips="1" connect="1" arrows="1" fold="1" page="1" pageScale="1" pageWidth="827" pageHeight="1169" math="0" shadow="0">
      <root>
        <mxCell id="0" />
        <mxCell id="1" parent="0" />
        <mxCell id="g-vTzpv_zn_2GOTxYaeK-10" value="" style="rounded=0;whiteSpace=wrap;html=1;direction=south;" parent="1" vertex="1">
          <mxGeometry x="217.38" y="100" width="442.62" height="580" as="geometry" />
        </mxCell>
        <mxCell id="g-vTzpv_zn_2GOTxYaeK-11" value="&lt;font style=&quot;font-size: 18px;&quot;&gt;&lt;b style=&quot;&quot;&gt;2048&lt;/b&gt;&lt;/font&gt;" style="rounded=0;whiteSpace=wrap;html=1;fillColor=#ffe6cc;strokeColor=none;align=left;" parent="1" vertex="1">
          <mxGeometry x="218.69" y="100" width="440" height="100" as="geometry" />
        </mxCell>
        <mxCell id="g-vTzpv_zn_2GOTxYaeK-13" value="" style="rounded=0;whiteSpace=wrap;html=1;direction=south;fillColor=light-dark(#e6e6e6, #ededed);strokeColor=none;strokeWidth=1;" parent="1" vertex="1">
          <mxGeometry x="226.07" y="240" width="425.25" height="420" as="geometry" />
        </mxCell>
        <mxCell id="jnryHrUICsK0y8-Uot-c-1" value="&lt;font style=&quot;font-size: 18px;&quot;&gt;&lt;b style=&quot;&quot;&gt;2&lt;/b&gt;&lt;/font&gt;" style="whiteSpace=wrap;html=1;aspect=fixed;strokeWidth=2;strokeColor=none;fillColor=light-dark(#dbdbdb, #ededed);" parent="1" vertex="1">
          <mxGeometry x="240" y="260" width="85" height="85" as="geometry" />
        </mxCell>
        <mxCell id="jnryHrUICsK0y8-Uot-c-2" value="&lt;font style=&quot;font-size: 18px;&quot;&gt;&lt;b&gt;4&lt;/b&gt;&lt;/font&gt;" style="whiteSpace=wrap;html=1;aspect=fixed;strokeWidth=2;fillColor=light-dark(#b3b3b3, #ededed);strokeColor=none;" parent="1" vertex="1">
          <mxGeometry x="350" y="260" width="85" height="85" as="geometry" />
        </mxCell>
        <mxCell id="jnryHrUICsK0y8-Uot-c-3" value="&lt;font style=&quot;font-size: 18px;&quot;&gt;&lt;b&gt;8&lt;/b&gt;&lt;/font&gt;" style="whiteSpace=wrap;html=1;aspect=fixed;fillColor=light-dark(#8c8c8c, #EDEDED);strokeColor=none;strokeWidth=2;" parent="1" vertex="1">
          <mxGeometry x="450" y="260" width="85" height="85" as="geometry" />
        </mxCell>
        <mxCell id="jnryHrUICsK0y8-Uot-c-4" value="&lt;font style=&quot;font-size: 18px;&quot;&gt;&lt;b&gt;16&lt;/b&gt;&lt;/font&gt;" style="whiteSpace=wrap;html=1;aspect=fixed;fillColor=light-dark(#fecdcd, #36210A);strokeColor=none;strokeWidth=2;" parent="1" vertex="1">
          <mxGeometry x="550" y="260" width="85" height="85" as="geometry" />
        </mxCell>
        <mxCell id="jnryHrUICsK0y8-Uot-c-13" value="32" style="whiteSpace=wrap;html=1;aspect=fixed;fillColor=light-dark(#ffb3b3, #9a5800);strokeColor=none;fontColor=#000000;strokeWidth=2;fontSize=18;fontStyle=1" parent="1" vertex="1">
          <mxGeometry x="240" y="360" width="85" height="85" as="geometry" />
        </mxCell>
        <mxCell id="jnryHrUICsK0y8-Uot-c-14" value="&lt;font style=&quot;color: rgb(0, 0, 0);&quot;&gt;64&lt;/font&gt;" style="whiteSpace=wrap;html=1;aspect=fixed;fillColor=light-dark(#fe8181, #ff9281);strokeColor=none;fontColor=#ffffff;strokeWidth=2;fontSize=18;fontStyle=1" parent="1" vertex="1">
          <mxGeometry x="350" y="360" width="85" height="85" as="geometry" />
        </mxCell>
        <mxCell id="jnryHrUICsK0y8-Uot-c-15" value="&lt;font style=&quot;color: rgb(51, 0, 0);&quot;&gt;128&lt;/font&gt;" style="whiteSpace=wrap;html=1;aspect=fixed;fillColor=light-dark(#ff6052, #ff9281);strokeColor=none;fontColor=#ffffff;strokeWidth=2;fontSize=18;fontStyle=1" parent="1" vertex="1">
          <mxGeometry x="450" y="360" width="85" height="85" as="geometry" />
        </mxCell>
        <mxCell id="jnryHrUICsK0y8-Uot-c-16" value="256" style="whiteSpace=wrap;html=1;aspect=fixed;fillColor=light-dark(#ff1a1a, #9a5800);strokeColor=none;fontColor=#000000;strokeWidth=2;fontSize=18;fontStyle=1" parent="1" vertex="1">
          <mxGeometry x="550" y="360" width="85" height="85" as="geometry" />
        </mxCell>
        <mxCell id="jnryHrUICsK0y8-Uot-c-17" value="512" style="whiteSpace=wrap;html=1;aspect=fixed;fillColor=light-dark(#fdfea9, #675000);strokeColor=none;fontColor=#000000;strokeWidth=2;fontSize=18;fontStyle=1" parent="1" vertex="1">
          <mxGeometry x="240" y="460" width="85" height="85" as="geometry" />
        </mxCell>
        <mxCell id="jnryHrUICsK0y8-Uot-c-18" value="1024" style="whiteSpace=wrap;html=1;aspect=fixed;fillColor=light-dark(#feef81, #675000);strokeColor=none;fontColor=#000000;strokeWidth=2;fontSize=18;fontStyle=1" parent="1" vertex="1">
          <mxGeometry x="350" y="460" width="85" height="85" as="geometry" />
        </mxCell>
        <mxCell id="jnryHrUICsK0y8-Uot-c-19" value="2048" style="whiteSpace=wrap;html=1;aspect=fixed;fillColor=light-dark(#feef4d, #675000);strokeColor=none;strokeWidth=2;fontColor=#000000;fontSize=18;fontStyle=1" parent="1" vertex="1">
          <mxGeometry x="450" y="460" width="85" height="85" as="geometry" />
        </mxCell>
        <mxCell id="jnryHrUICsK0y8-Uot-c-20" value="" style="whiteSpace=wrap;html=1;aspect=fixed;fillColor=light-dark(#FFFFFF,#EDEDED);strokeColor=none;fontColor=#333333;strokeWidth=2;fontSize=18;fontStyle=1" parent="1" vertex="1">
          <mxGeometry x="550" y="460" width="85" height="85" as="geometry" />
        </mxCell>
        <mxCell id="jnryHrUICsK0y8-Uot-c-26" value="&lt;b&gt;&lt;font style=&quot;font-size: 17px;&quot;&gt;Score&lt;/font&gt;&lt;/b&gt;&lt;div&gt;&lt;span style=&quot;font-size: 17px;&quot;&gt;&lt;b&gt;200002&lt;/b&gt;&lt;/span&gt;&lt;/div&gt;" style="whiteSpace=wrap;html=1;aspect=fixed;fillColor=#fff2cc;strokeColor=none;strokeWidth=0;align=center;" parent="1" vertex="1">
          <mxGeometry x="500" y="120" width="60" height="60" as="geometry" />
        </mxCell>
        <mxCell id="jnryHrUICsK0y8-Uot-c-27" value="&lt;span style=&quot;font-size: 17px;&quot;&gt;&lt;b&gt;top&lt;/b&gt;&lt;/span&gt;&lt;br&gt;&lt;div&gt;&lt;span style=&quot;font-size: 17px;&quot;&gt;&lt;b&gt;200002&lt;/b&gt;&lt;/span&gt;&lt;/div&gt;" style="whiteSpace=wrap;html=1;aspect=fixed;fillColor=#fff2cc;strokeColor=none;strokeWidth=0;align=center;" parent="1" vertex="1">
          <mxGeometry x="575" y="120" width="60" height="60" as="geometry" />
        </mxCell>
        <mxCell id="jnryHrUICsK0y8-Uot-c-33" value="" style="whiteSpace=wrap;html=1;aspect=fixed;strokeWidth=0;" parent="1" vertex="1">
          <mxGeometry x="240" y="560" width="85" height="85" as="geometry" />
        </mxCell>
        <mxCell id="jnryHrUICsK0y8-Uot-c-34" value="" style="whiteSpace=wrap;html=1;aspect=fixed;fillColor=light-dark(#FFFFFF,#EDEDED);strokeColor=none;fontColor=#333333;strokeWidth=2;" parent="1" vertex="1">
          <mxGeometry x="450" y="560" width="85" height="85" as="geometry" />
        </mxCell>
        <mxCell id="jnryHrUICsK0y8-Uot-c-35" value="" style="whiteSpace=wrap;html=1;aspect=fixed;strokeWidth=0;fillColor=#FFFFFF;" parent="1" vertex="1">
          <mxGeometry x="350" y="560" width="85" height="85" as="geometry" />
        </mxCell>
        <mxCell id="jnryHrUICsK0y8-Uot-c-36" value="" style="whiteSpace=wrap;html=1;aspect=fixed;fillColor=light-dark(#ffffff, #ededed);strokeColor=none;fontColor=#333333;strokeWidth=2;" parent="1" vertex="1">
          <mxGeometry x="550" y="560" width="85" height="85" as="geometry" />
        </mxCell>
        <mxCell id="jnryHrUICsK0y8-Uot-c-37" value="&lt;font style=&quot;font-size: 18px;&quot;&gt;&lt;b style=&quot;&quot;&gt;2048&lt;/b&gt;&lt;/font&gt;" style="rounded=0;whiteSpace=wrap;html=1;fillColor=#ffe6cc;strokeColor=none;align=left;strokeWidth=0;" parent="1" vertex="1">
          <mxGeometry x="325" y="100" width="76.06" height="100" as="geometry" />
        </mxCell>
        <mxCell id="jnryHrUICsK0y8-Uot-c-38" value="" style="rounded=0;whiteSpace=wrap;html=1;fillColor=#ffe6cc;strokeColor=none;align=left;strokeWidth=0;" parent="1" vertex="1">
          <mxGeometry x="218.69" y="100" width="76.06" height="100" as="geometry" />
        </mxCell>
        <mxCell id="1BQGMi08_UnQhidNM5xT-1" value="&lt;span style=&quot;font-size: 17px;&quot;&gt;&lt;b&gt;RESET&lt;/b&gt;&lt;/span&gt;" style="whiteSpace=wrap;html=1;aspect=fixed;fillColor=#fff2cc;strokeColor=none;strokeWidth=0;align=center;" parent="1" vertex="1">
          <mxGeometry x="420" y="120" width="60" height="60" as="geometry" />
        </mxCell>
      </root>
    </mxGraphModel>
  </diagram>
</mxfile>
